# xmcd
#
# Track frame offsets:
#	150
#	23852
#	43465
#	62554
#	81205
#	102834
#	119130
#	140982
#	159402
#	186334
#	210719
#	228258
#
# Disc length: 3389 seconds
#
# Revision: 1
# Processed by: cddbd v1.5.2PL0 Copyright (c) Steve Scherf et al.
# Submitted via: audiograbber 1.83.01
#
DISCID=b10d3b0c
DTITLE=Kid Rock - Born Free
DYEAR=1900
DGENRE=
TTITLE0=Born Free
TTITLE1=Slow My Roll
TTITLE2=Care (Featuring Mary J. Blige and T.I.)
TTITLE3=Purple Sky
TTITLE4=When It Rains
TTITLE5=God Bless Saturday
TTITLE6=Collide (Featuring Sheryl Crow and Bob Seger On Piano)
TTITLE7=Flyin' High (Featuring Zac Brown)
TTITLE8=Times Like These
TTITLE9=Rock On
TTITLE10=Rock Bottom Blues
TTITLE11=For The First Time (In A Long Time)
EXTD=
EXTT0=
EXTT1=
EXTT2=
EXTT3=
EXTT4=
EXTT5=
EXTT6=
EXTT7=
EXTT8=
EXTT9=
EXTT10=
EXTT11=
PLAYORDER=
